<mxfile host="app.diagrams.net" modified="2024-02-15T13:29:26.595Z" agent="Mozilla/5.0 (Windows NT 10.0; Win64; x64; rv:122.0) Gecko/20100101 Firefox/122.0" etag="shlj2CElSTEF921bafY8" version="23.1.4" type="device">
  <diagram name="Sivu-1" id="DLle6h_ovryoVOhN87in">
    <mxGraphModel dx="989" dy="534" grid="1" gridSize="10" guides="1" tooltips="1" connect="1" arrows="1" fold="1" page="1" pageScale="1" pageWidth="827" pageHeight="1169" math="0" shadow="0">
      <root>
        <mxCell id="0" />
        <mxCell id="1" parent="0" />
        <mxCell id="tASfrurczDFOnHgzNpIz-13" value="" style="edgeStyle=orthogonalEdgeStyle;rounded=0;orthogonalLoop=1;jettySize=auto;html=1;" edge="1" parent="1" source="tASfrurczDFOnHgzNpIz-1" target="tASfrurczDFOnHgzNpIz-3">
          <mxGeometry relative="1" as="geometry" />
        </mxCell>
        <mxCell id="tASfrurczDFOnHgzNpIz-24" style="edgeStyle=orthogonalEdgeStyle;rounded=0;orthogonalLoop=1;jettySize=auto;html=1;entryX=0.5;entryY=0;entryDx=0;entryDy=0;" edge="1" parent="1" source="tASfrurczDFOnHgzNpIz-1" target="tASfrurczDFOnHgzNpIz-23">
          <mxGeometry relative="1" as="geometry" />
        </mxCell>
        <mxCell id="tASfrurczDFOnHgzNpIz-1" value="&lt;div align=&quot;center&quot;&gt;IHDR&lt;/div&gt;&lt;div align=&quot;center&quot;&gt;Image Header&lt;br&gt;&lt;/div&gt;" style="rounded=0;whiteSpace=wrap;html=1;align=center;" vertex="1" parent="1">
          <mxGeometry x="350" y="40" width="120" height="60" as="geometry" />
        </mxCell>
        <mxCell id="tASfrurczDFOnHgzNpIz-2" value="&lt;div&gt;PLTE&lt;/div&gt;&lt;div&gt;Palette&lt;br&gt;&lt;/div&gt;" style="rounded=0;whiteSpace=wrap;html=1;" vertex="1" parent="1">
          <mxGeometry x="500" y="380" width="120" height="60" as="geometry" />
        </mxCell>
        <mxCell id="tASfrurczDFOnHgzNpIz-7" value="" style="edgeStyle=orthogonalEdgeStyle;rounded=0;orthogonalLoop=1;jettySize=auto;html=1;" edge="1" parent="1" source="tASfrurczDFOnHgzNpIz-3" target="tASfrurczDFOnHgzNpIz-4">
          <mxGeometry relative="1" as="geometry" />
        </mxCell>
        <mxCell id="tASfrurczDFOnHgzNpIz-9" value="" style="edgeStyle=orthogonalEdgeStyle;rounded=0;orthogonalLoop=1;jettySize=auto;html=1;" edge="1" parent="1" source="tASfrurczDFOnHgzNpIz-3" target="tASfrurczDFOnHgzNpIz-8">
          <mxGeometry relative="1" as="geometry" />
        </mxCell>
        <mxCell id="tASfrurczDFOnHgzNpIz-12" value="" style="edgeStyle=orthogonalEdgeStyle;rounded=0;orthogonalLoop=1;jettySize=auto;html=1;" edge="1" parent="1" source="tASfrurczDFOnHgzNpIz-3" target="tASfrurczDFOnHgzNpIz-11">
          <mxGeometry relative="1" as="geometry" />
        </mxCell>
        <mxCell id="tASfrurczDFOnHgzNpIz-3" value="Colortype:" style="ellipse;whiteSpace=wrap;html=1;" vertex="1" parent="1">
          <mxGeometry x="500" y="120" width="120" height="80" as="geometry" />
        </mxCell>
        <mxCell id="tASfrurczDFOnHgzNpIz-15" value="" style="edgeStyle=orthogonalEdgeStyle;rounded=0;orthogonalLoop=1;jettySize=auto;html=1;" edge="1" parent="1" source="tASfrurczDFOnHgzNpIz-4" target="tASfrurczDFOnHgzNpIz-14">
          <mxGeometry relative="1" as="geometry" />
        </mxCell>
        <mxCell id="tASfrurczDFOnHgzNpIz-4" value="&lt;div&gt;3&lt;/div&gt;&lt;div&gt;Index color&lt;br&gt;&lt;/div&gt;" style="rounded=1;whiteSpace=wrap;html=1;" vertex="1" parent="1">
          <mxGeometry x="490" y="240" width="60" height="60" as="geometry" />
        </mxCell>
        <mxCell id="tASfrurczDFOnHgzNpIz-21" value="" style="edgeStyle=orthogonalEdgeStyle;rounded=0;orthogonalLoop=1;jettySize=auto;html=1;" edge="1" parent="1" source="tASfrurczDFOnHgzNpIz-8" target="tASfrurczDFOnHgzNpIz-17">
          <mxGeometry relative="1" as="geometry" />
        </mxCell>
        <mxCell id="tASfrurczDFOnHgzNpIz-8" value="2 true color, 6 true color aplha" style="rounded=1;whiteSpace=wrap;html=1;" vertex="1" parent="1">
          <mxGeometry x="565" y="240" width="70" height="60" as="geometry" />
        </mxCell>
        <mxCell id="tASfrurczDFOnHgzNpIz-11" value="&lt;div&gt;0 Grayscale,&lt;/div&gt;&lt;div&gt;4 Grayscale alpha&lt;/div&gt;" style="rounded=1;whiteSpace=wrap;html=1;" vertex="1" parent="1">
          <mxGeometry x="650" y="240" width="110" height="60" as="geometry" />
        </mxCell>
        <mxCell id="tASfrurczDFOnHgzNpIz-16" value="" style="edgeStyle=orthogonalEdgeStyle;rounded=0;orthogonalLoop=1;jettySize=auto;html=1;" edge="1" parent="1" source="tASfrurczDFOnHgzNpIz-14" target="tASfrurczDFOnHgzNpIz-2">
          <mxGeometry relative="1" as="geometry">
            <Array as="points">
              <mxPoint x="520" y="360" />
              <mxPoint x="560" y="360" />
            </Array>
          </mxGeometry>
        </mxCell>
        <mxCell id="tASfrurczDFOnHgzNpIz-14" value="Must have" style="rounded=0;whiteSpace=wrap;html=1;" vertex="1" parent="1">
          <mxGeometry x="490" y="320" width="60" height="30" as="geometry" />
        </mxCell>
        <mxCell id="tASfrurczDFOnHgzNpIz-19" value="" style="edgeStyle=orthogonalEdgeStyle;rounded=0;orthogonalLoop=1;jettySize=auto;html=1;" edge="1" parent="1" source="tASfrurczDFOnHgzNpIz-17" target="tASfrurczDFOnHgzNpIz-2">
          <mxGeometry relative="1" as="geometry">
            <Array as="points">
              <mxPoint x="600" y="360" />
              <mxPoint x="560" y="360" />
            </Array>
          </mxGeometry>
        </mxCell>
        <mxCell id="tASfrurczDFOnHgzNpIz-17" value="May have" style="rounded=0;whiteSpace=wrap;html=1;" vertex="1" parent="1">
          <mxGeometry x="570" y="320" width="60" height="30" as="geometry" />
        </mxCell>
        <mxCell id="tASfrurczDFOnHgzNpIz-20" value="IEND" style="rounded=0;whiteSpace=wrap;html=1;" vertex="1" parent="1">
          <mxGeometry x="310" y="570" width="120" height="60" as="geometry" />
        </mxCell>
        <mxCell id="tASfrurczDFOnHgzNpIz-29" value="" style="edgeStyle=orthogonalEdgeStyle;rounded=0;orthogonalLoop=1;jettySize=auto;html=1;" edge="1" parent="1" source="tASfrurczDFOnHgzNpIz-23" target="tASfrurczDFOnHgzNpIz-26">
          <mxGeometry relative="1" as="geometry" />
        </mxCell>
        <mxCell id="tASfrurczDFOnHgzNpIz-23" value="Compression Mode:" style="ellipse;whiteSpace=wrap;html=1;" vertex="1" parent="1">
          <mxGeometry x="140" y="120" width="120" height="80" as="geometry" />
        </mxCell>
        <mxCell id="tASfrurczDFOnHgzNpIz-25" value="&lt;div&gt;PNG sliding window = 32768 Bytes &lt;/div&gt;&lt;div&gt;&lt;br&gt;&lt;/div&gt;&lt;div&gt;Look ahead buffer 258 Bytes&lt;br&gt;&lt;/div&gt;" style="rounded=0;whiteSpace=wrap;html=1;" vertex="1" parent="1">
          <mxGeometry x="150" y="400" width="120" height="60" as="geometry" />
        </mxCell>
        <mxCell id="tASfrurczDFOnHgzNpIz-26" value="&lt;div&gt;0&lt;/div&gt;&lt;div&gt;Only&amp;nbsp; option&lt;br&gt;&lt;/div&gt;" style="rounded=1;whiteSpace=wrap;html=1;" vertex="1" parent="1">
          <mxGeometry x="170" y="240" width="60" height="60" as="geometry" />
        </mxCell>
      </root>
    </mxGraphModel>
  </diagram>
</mxfile>
